<?xml version="1.0" encoding="UTF-8" standalone="no"?>
<!DOCTYPE svg PUBLIC "-//W3C//DTD SVG 1.1//EN" "http://www.w3.org/Graphics/SVG/1.1/DTD/svg11.dtd">
<svg version="1.1" xmlns="http://www.w3.org/2000/svg" xmlns:dc="http://purl.org/dc/elements/1.1/" xmlns:xl="http://www.w3.org/1999/xlink" viewBox="516 52 102 102" width="102" height="102">
  <defs/>
  <g id="Canvas_1" stroke="none" stroke-opacity="1" fill="none" stroke-dasharray="none" fill-opacity="1">
    <title>Canvas 1</title>
    <g id="Canvas_1_Layer_1">
      <title>Layer 1</title>
      <g id="Group_2">
        <g id="Graphic_5">
          <circle cx="557.7425" cy="112.29" r="15.7600330629465" fill="#0e3496"/>
        </g>
        <g id="Graphic_4">
          <path d="M 617.5325 52.5 L 617.5325 137.57 C 617.5325 138.46 617.4625 139.35 617.3125 140.23 C 616.7925 143.38 615.3425 146.42 612.9725 148.85 C 606.9025 155.08 597.0625 155.08 590.9925 148.85 C 588.6225 146.42 587.1725 143.39 586.6525 140.23 C 586.5125 139.35 586.4325 138.46 586.4325 137.57 L 586.4325 102.36 C 586.4325 92.44 577.9625 83.58 568.3025 83.58 L 531.4025 83.58 C 527.4225 83.58 524.0825 82.84 521.0525 79.73 C 514.9825 73.5 514.9825 63.4 521.0525 57.17 C 524.0825 54.06 528.0625 52.5 532.0425 52.5 L 617.5225 52.5 Z" fill="#6d11a3"/>
        </g>
        <g id="Graphic_3">
          <circle cx="532.2725" cy="137.76" r="15.7600330629464" fill="#55e0e0"/>
        </g>
      </g>
    </g>
  </g>
</svg>
