<?xml version="1.0" encoding="UTF-8"?>
<svg id="Layer_1" data-name="Layer 1" xmlns="http://www.w3.org/2000/svg" viewBox="0 0 884.81 178.44">
  <defs>
    <style>
      .cls-1 {
        fill: #55e0e0;
      }

      .cls-2 {
        fill: #6d11a3;
      }

      .cls-3 {
        fill: #0e3496;
      }
    </style>
  </defs>
  <g>
    <g>
      <path class="cls-3" d="M513.97,92.93c-1.55-.09-2.98-.57-4.17-1.4-1.2-.83-2.17-2.01-2.79-3.42-1.26-2.85-.83-5.99,1.14-8.41l4.17-5.08,.27-.55c3.46-6.71,3.18-14.56-.75-21.01-3.93-6.46-10.79-10.31-18.35-10.31h-37.95v97.42h54.69c12.26,0,22.25-9.99,22.25-22.25v-5.42c0-10.39-8.13-18.99-18.51-19.58Zm7.01,24.99c0,5.92-4.83,10.75-10.75,10.75h-43.2V54.24h26.46c3.57,0,6.67,1.74,8.53,4.79,1.71,2.81,1.95,6.12,.67,9.11l-.2,.32-3.24,3.97c-4.69,5.74-5.75,13.52-2.77,20.3,2.99,6.78,9.44,11.26,16.83,11.67,4.29,.24,7.66,3.8,7.66,8.1v5.42Z"/>
      <path class="cls-3" d="M594.43,116.59c0,6.75-5.5,12.25-12.25,12.25h-12.76c-6.77,0-12.26-5.5-12.26-12.25v-44.58h-11.16v44.58c0,12.92,10.51,23.43,23.43,23.43h12.76c3.58,0,7.06-.83,10.32-2.43l1.93-.95v13.92c0,5.27-3.46,9.09-8.25,9.09h-18.6v11.16h18.6c10.9,0,19.43-8.89,19.43-20.26V72.01h-11.18v44.58Z"/>
      <path class="cls-3" d="M636.37,40.85h-11.18V120.78c0,10.72,8.72,19.44,19.44,19.44h11.35v-11.18h-11.35c-4.56,0-8.26-3.7-8.26-8.26v-37.8h19.62v-11.18h-19.62v-30.95Z"/>
      <path class="cls-3" d="M713.44,71.05c-3.94-.82-7.93-1.22-11.91-1.22-3.72,0-7.45,.35-11.14,1.06l-1.52,.29c-10.48,2.01-18.1,11.22-18.1,21.9v27.84c0,10.58,8.61,19.19,19.19,19.19h31.78v-11.16h-31.78c-4.41,0-8.02-3.6-8.02-8.02v-5.74h27.04c12.3,0,22.3-10,22.3-22.3,0-10.54-7.5-19.72-17.82-21.83Zm-4.48,32.96h-27.04v-10.92c0-5.34,3.81-9.93,9.04-10.92l1.52-.29c6.22-1.19,12.52-1.15,18.72,.13,5.15,1.06,8.88,5.63,8.88,10.88,0,6.14-4.99,11.12-11.13,11.12Z"/>
      <g>
        <polygon class="cls-3" points="57.74 58.25 57.74 80.85 90.4 80.85 90.4 100.36 57.74 100.36 57.74 122.95 112.42 122.95 112.42 142.46 38.23 142.46 38.23 38.74 112.42 38.74 112.42 58.25 57.74 58.25"/>
        <path class="cls-3" d="M186.11,89.42v53.04h-19.19v-53.04c0-1.99-1.63-3.62-3.62-3.62h-21.25c-2.01,0-3.62,1.63-3.62,3.62v53.04h-19.2v-53.04c0-12.58,10.24-22.81,22.82-22.81h21.25c12.58,0,22.81,10.23,22.81,22.81Z"/>
        <path class="cls-3" d="M273.36,65.79l-22.7,63.9c-2.71,7.63-9.97,12.77-18.08,12.77s-15.38-5.13-18.08-12.77l-22.69-63.86h20.36l20.4,57.44,20.39-57.43,20.39-.05Z"/>
        <g>
          <rect class="cls-3" x="280.45" y="66.96" width="19.19" height="75.51"/>
          <path class="cls-3" d="M301.02,50.68c0,6.06-4.93,10.98-10.98,10.98s-10.99-4.92-10.99-10.98,4.93-10.98,10.99-10.98,10.98,4.92,10.98,10.98Z"/>
        </g>
        <path class="cls-3" d="M360.69,66.92v19.2h-22.17c-2.98,0-5.4,2.42-5.4,5.4v50.94h-19.2v-50.94c0-13.57,11.04-24.6,24.6-24.6h22.17Z"/>
        <path class="cls-3" d="M405.47,61.86h-4.24c-19.76,0-35.85,16.07-35.85,35.83v8.93c0,19.76,16.09,35.83,35.85,35.83h4.24c19.78,0,35.85-16.07,35.85-35.83v-8.93c0-19.76-16.07-35.83-35.85-35.83Zm0,61.41h-4.24c-9.19,0-16.65-7.47-16.65-16.65v-8.92c0-9.19,7.46-16.66,16.65-16.66h4.24c9.19,0,16.66,7.47,16.66,16.66v8.92c0,9.17-7.47,16.65-16.66,16.65Z"/>
      </g>
    </g>
    <g>
      <circle class="cls-3" cx="787.09" cy="100.25" r="15.76"/>
      <path class="cls-2" d="M846.88,40.46V125.53c0,.89-.07,1.78-.22,2.66-.52,3.15-1.97,6.19-4.34,8.62-6.07,6.23-15.91,6.23-21.98,0-2.37-2.43-3.82-5.46-4.34-8.62-.14-.88-.22-1.77-.22-2.66v-35.21c0-9.92-8.47-18.78-18.13-18.78h-36.9c-3.98,0-7.32-.74-10.35-3.85-6.07-6.23-6.07-16.33,0-22.56,3.03-3.11,7.01-4.67,10.99-4.67h85.48Z"/>
      <circle class="cls-1" cx="761.62" cy="125.72" r="15.76"/>
    </g>
  </g>
  <path class="cls-3" d="M594.48,116.77c0,6.75-5.5,12.25-12.25,12.25h-12.76c-6.77,0-12.26-5.5-12.26-12.25v-44.58h-11.16v44.58c0,12.92,10.51,23.43,23.43,23.43h12.76c3.58,0,7.06-.83,10.32-2.43l1.93-.95v13.92c0,5.27-3.46,9.09-8.25,9.09h-18.6v11.16h18.6c10.9,0,19.43-8.89,19.43-20.26V72.19h-11.18v44.58Z"/>
</svg>