<?xml version="1.0" encoding="UTF-8" standalone="no"?>
<!DOCTYPE svg PUBLIC "-//W3C//DTD SVG 1.1//EN" "http://www.w3.org/Graphics/SVG/1.1/DTD/svg11.dtd">
<svg xmlns="http://www.w3.org/2000/svg" xmlns:xl="http://www.w3.org/1999/xlink" xmlns:dc="http://purl.org/dc/elements/1.1/" version="1.1" viewBox="0 0 451 353" width="451" height="353">
  <defs/>
  <g id="Canvas_1" stroke="none" stroke-dasharray="none" stroke-opacity="1" fill="none" fill-opacity="1">
    <title>Canvas 1</title>
    <g id="Canvas_1_Layer_1">
      <title>Layer 1</title>
      <g id="Graphic_2">
        <rect x="69.1" y="186.3" width="48.3" height="57.7" fill="#6d11a3"/>
      </g>
      <g id="Graphic_3">
        <path d="M 177.2 261 L 177.2 237 C 177.2 234.4 175.1 232.3 172.5 232.3 L 88.5 232.3 C 85.8 232.3 83.6 231 83.7 229.5 L 84.7 183.5 C 84.7 181.9 82.6 180.7 79.9 180.7 L 47.7 180.7 C 45 180.7 42.9 179.4 42.9 177.9 L 42.9 150" stroke="#55e0e0" stroke-linecap="butt" stroke-linejoin="round" stroke-width="3"/>
      </g>
      <g id="Graphic_4">
        <rect x="322.5" y="184.3" width="48.3" height="18.2" fill="#6d11a3"/>
      </g>
      <g id="Graphic_5">
        <rect x="287.6" y="34.3" width="48.3" height="57.7" fill="#6d11a3"/>
      </g>
      <g id="Group_6">
        <g id="Graphic_12">
          <path d="M 38.6 128.7 L 38.6 51.6 C 38.6 49.2 40.5 47.3 42.9 47.3 L 158.1 47.3 C 160.5 47.3 162.4 49.2 162.4 51.6 L 162.4 128.7 C 162.4 131.1 160.5 133 158.1 133 L 42.9 133 C 40.6 133 38.6 131.1 38.6 128.7 Z" fill="#6d11a3"/>
        </g>
        <g id="Graphic_11">
          <path d="M 43.4 128.7 L 43.4 51.6 C 43.4 49.2 45.3 47.3 47.7 47.3 L 162.9 47.3 C 165.3 47.3 167.2 49.2 167.2 51.6 L 167.2 128.7 C 167.2 131.1 165.3 133 162.9 133 L 47.6 133 C 45.3 133 43.4 131.1 43.4 128.7 Z" fill="#d9cfff"/>
        </g>
        <g id="Graphic_10">
          <rect x="97.4" y="133" width="13.2" height="21.4" fill="#6d11a3"/>
        </g>
        <g id="Graphic_9">
          <path d="M 72.1 156.2 L 72.1 155.7 C 72.1 154.5 73 153.6 74.2 153.6 L 148 153.6 C 149.2 153.6 150.1 154.5 150.1 155.7 L 150.1 156.2 C 150.1 157.4 149.2 158.3 148 158.3 L 74.2 158.3 C 73 158.2 72.1 157.3 72.1 156.2 Z" fill="#d9cfff"/>
        </g>
        <g id="Graphic_8">
          <rect x="50" y="54.4" width="109.6" height="58.5" fill="#4262d3"/>
        </g>
        <g id="Graphic_7">
          <circle cx="106.6" cy="122.4" r="5.6000117482551" fill="#6d11a3"/>
        </g>
      </g>
      <g id="Graphic_13">
        <path d="M 252.2 114.3 C 252.2 104.8 245.4 97.1 237 97.1 L 198.3 97.1 C 192.6 97.1 188 91.9 188 85.4 C 188.1 84.5 188.2 83.5 188.2 82.6 C 188.2 73.1 181.4 65.4 173 65.4 L 78.2 65.4 C 69.8 65.4 63 73.1 63 82.6 C 63 92.1 69.8 99.8 78.2 99.8 L 151.8 99.8 C 154.9 99.8 157.5 102.7 157.5 106.2 L 157.5 114.3 C 157.5 123.8 164.3 131.5 172.7 131.5 L 213.9 131.5 C 218.1 131.5 221.5 135.3 221.5 140.1 L 221.5 146 C 221.5 155.5 228.3 163.2 236.7 163.2 C 245.1 163.2 251.9 155.5 251.9 146 C 251.9 146.1 252.2 115.5 252.2 114.3 Z" fill="#55e0e0"/>
      </g>
      <g id="Graphic_14">
        <path d="M 60.4 149.8 L 60.4 166.1 C 60.4 167.6 62.6 168.9 65.2 168.9 L 97.3 168.9 C 100 168.9 102.2 170.2 102.1 171.7 L 101.1 217.7 C 101.1 219.3 103.2 220.5 105.9 220.5 L 182.9 220.8 C 186.1 220.8 188.6 223.4 188.6 226.5 L 188.9 261.2" stroke="#55e0e0" stroke-linecap="butt" stroke-linejoin="round" stroke-width="3"/>
      </g>
      <g id="Graphic_15">
        <circle cx="60.4" cy="148.7" r="4.90000782971928" fill="#55e0e0"/>
      </g>
      <g id="Graphic_16">
        <circle cx="42.8" cy="148.7" r="4.90000782971928" fill="#55e0e0"/>
      </g>
      <g id="Graphic_17">
        <path d="M 277 105 L 268.6 105 L 268.6 83 C 268.6 80.7 270.5 78.8 272.8 78.8 C 275.1 78.8 277 80.7 277 83 Z" fill="white"/>
      </g>
      <g id="Graphic_18">
        <circle cx="261.1" cy="84.9" r="3.50000559265662" fill="white"/>
      </g>
      <g id="Group_19">
        <g id="Graphic_22">
          <path d="M 76.7 90.3 L 76.7 73.1 L 83.2 73.1 C 87 79.3 88.3 81.5 89.4 83.7 L 89.5 83.7 C 89.3 82.1 89.4 79 89.4 76.1 L 89.4 73.1 L 94.4 73.1 L 94.4 90.3 L 88.2 90.3 C 86.9 87.9 82.6 80.6 81.6 78.5 L 81.5 78.5 C 81.7 80.5 81.7 82.7 81.7 86.1 L 81.7 90.3 L 76.7 90.3 Z" fill="white"/>
        </g>
        <g id="Graphic_21">
          <path d="M 117.2 81.7 C 117.2 86.6 114 90.7 107.2 90.7 C 101 90.7 97.6 86.7 97.6 81.7 C 97.6 77 100.9 72.7 107.5 72.7 C 113.7 72.7 117.2 76.8 117.2 81.7 Z M 103.5 81.6 C 103.5 84.6 104.7 86.8 107.5 86.8 C 110.4 86.8 111.3 84.3 111.3 81.7 C 111.3 78.7 110.2 76.5 107.3 76.5 C 104.6 76.6 103.5 78.8 103.5 81.6 Z" fill="white"/>
        </g>
        <g id="Graphic_20">
          <path d="M 124.5 77.5 C 125.6 79 126.4 80.5 126.8 81.2 L 126.9 81.2 C 127.4 80.2 128.2 78.9 129.1 77.5 L 134.8 77.5 L 130 83.6 L 135 90.3 L 129 90.3 C 127.8 88.5 127 87.2 126.7 86.6 L 126.6 86.6 C 126.3 87.2 125.5 88.5 124.3 90.3 L 118.6 90.3 L 123.5 83.9 L 118.6 77.5 L 124.5 77.5 Z" fill="white"/>
        </g>
      </g>
      <g id="Graphic_23">
        <path d="M 255 88.5 L 211.2 88.5 C 208.6 88.5 206.4 86.4 206.4 83.7 C 206.4 81.1 208.5 78.9 211.2 78.9 L 255 78.9 C 257.6 78.9 259.8 81 259.8 83.7 C 259.8 86.3 257.7 88.5 255 88.5 Z" fill="#55e0e0"/>
      </g>
      <g id="Graphic_24">
        <rect x="35.2" y="260.5" width="170.3" height="71.7" fill="#4262d3"/>
      </g>
      <g id="Graphic_25">
        <path d="M 43 332.3 L 30.8 332.3 C 29.7 332.3 28.9 331.4 28.9 330.4 L 28.9 262.5 C 28.9 261.4 29.8 260.6 30.8 260.6 L 43 260.6 Z" fill="#0e3496"/>
      </g>
      <g id="Graphic_26">
        <rect x="56.5" y="275.2" width="44.4" height="57.1" fill="#55e0e0"/>
      </g>
      <g id="Graphic_27">
        <rect x="116.2" y="282.9" width="20.5" height="33.5" fill="#a1e5e3"/>
      </g>
      <g id="Group_28">
        <g id="Graphic_31">
          <rect x="77" y="275.2" width="3.5" height="57.1" fill="#4262d3"/>
        </g>
        <g id="Graphic_30">
          <rect x="71.3" y="303.7" width="3.5" height="5" fill="#4262d3"/>
        </g>
        <g id="Graphic_29">
          <rect x="82.7" y="303.7" width="3.5" height="5" fill="#4262d3"/>
        </g>
      </g>
      <g id="Graphic_32">
        <path d="M 369.9 333.8 L 271.8 333.8 C 269.3 333.8 267.3 331.8 267.3 329.3 L 267.3 217.2 C 267.3 214.7 269.3 212.7 271.8 212.7 L 369.9 212.7 C 372.4 212.7 374.4 214.7 374.4 217.2 L 374.4 329.3 C 374.4 331.8 372.4 333.8 369.9 333.8 Z" fill="#6d11a3"/>
      </g>
      <g id="Graphic_33">
        <path d="M 390.8 333.8 L 283.6 333.8 C 281.1 333.8 279.1 331.8 279.1 329.3 L 279.1 217.2 C 279.1 214.7 281.1 212.7 283.6 212.7 L 390.8 212.7 C 393.3 212.7 395.3 214.7 395.3 217.2 L 395.3 329.3 C 395.3 331.8 393.3 333.8 390.8 333.8 Z" fill="#d9cfff"/>
      </g>
      <g id="Group_34">
        <g id="Graphic_61">
          <rect x="346.6" y="50.5" width="67.8" height="82.9" fill="#d9cfff"/>
        </g>
        <g id="Graphic_60">
          <rect x="352.7" y="57.9" width="55.6" height="10" fill="#4262d3"/>
        </g>
        <g id="Group_56">
          <g id="Graphic_59">
            <rect x="353.3" y="72.6" width="5.7" height="48.4" fill="#6d11a3"/>
          </g>
          <g id="Graphic_58">
            <rect x="353.3" y="96.9" width="5.7" height="13.5" fill="#55e0e0"/>
          </g>
          <g id="Graphic_57">
            <rect x="353.3" y="107.6" width="5.7" height="13.5" fill="#a1e5e3"/>
          </g>
        </g>
        <g id="Group_52">
          <g id="Graphic_55">
            <rect x="363" y="72.6" width="5.7" height="48.4" fill="#6d11a3"/>
          </g>
          <g id="Graphic_54">
            <rect x="363" y="96.9" width="5.7" height="13.5" fill="#55e0e0"/>
          </g>
          <g id="Graphic_53">
            <rect x="363" y="107.6" width="5.7" height="13.5" fill="#a1e5e3"/>
          </g>
        </g>
        <g id="Group_48">
          <g id="Graphic_51">
            <rect x="402.1" y="72.6" width="5.7" height="48.4" fill="#6d11a3"/>
          </g>
          <g id="Graphic_50">
            <rect x="402.1" y="96.9" width="5.7" height="13.5" fill="#55e0e0"/>
          </g>
          <g id="Graphic_49">
            <rect x="402.1" y="107.6" width="5.7" height="13.5" fill="#a1e5e3"/>
          </g>
        </g>
        <g id="Group_44">
          <g id="Graphic_47">
            <rect x="372.8" y="72.6" width="5.7" height="48.4" fill="#6d11a3"/>
          </g>
          <g id="Graphic_46">
            <rect x="372.8" y="96.9" width="5.7" height="13.5" fill="#55e0e0"/>
          </g>
          <g id="Graphic_45">
            <rect x="372.8" y="107.6" width="5.7" height="13.5" fill="#a1e5e3"/>
          </g>
        </g>
        <g id="Group_40">
          <g id="Graphic_43">
            <rect x="382.5" y="72.6" width="5.7" height="48.4" fill="#6d11a3"/>
          </g>
          <g id="Graphic_42">
            <rect x="382.5" y="96.9" width="5.7" height="13.5" fill="#55e0e0"/>
          </g>
          <g id="Graphic_41">
            <rect x="382.5" y="107.6" width="5.7" height="13.5" fill="#a1e5e3"/>
          </g>
        </g>
        <g id="Group_36">
          <g id="Graphic_39">
            <rect x="392.3" y="72.6" width="5.7" height="48.4" fill="#6d11a3"/>
          </g>
          <g id="Graphic_38">
            <rect x="392.3" y="96.9" width="5.7" height="13.5" fill="#55e0e0"/>
          </g>
          <g id="Graphic_37">
            <rect x="392.3" y="107.6" width="5.7" height="13.5" fill="#a1e5e3"/>
          </g>
        </g>
        <g id="Graphic_35">
          <rect x="414.3" y="50.5" width="7.5" height="82.9" fill="#6d11a3"/>
        </g>
      </g>
      <g id="Graphic_62">
        <path d="M 265.3 117.2 L 256.9 117.2 L 256.9 95.2 C 256.9 92.9 258.8 91 261.1 91 C 263.4 91 265.3 92.9 265.3 95.2 Z" fill="white"/>
      </g>
      <g id="Graphic_63">
        <rect x="201.2" y="135.6" width="53.7" height="196.6" fill="#4262d3"/>
      </g>
      <g id="Graphic_64">
        <path d="M 253.4 137.1 L 202.7 137.1 C 198.2 137.1 194.5 133.4 194.5 128.9 L 194.5 125.8 C 194.5 121.3 198.2 117.6 202.7 117.6 L 253.4 117.6 C 257.9 117.6 261.6 121.3 261.6 125.8 L 261.6 128.9 C 261.6 133.4 257.9 137.1 253.4 137.1 Z" fill="#6d11a3"/>
      </g>
      <g id="Graphic_65">
        <rect x="281.5293" y="223.271" width="13.8" height="8.4" fill="#55e0e0"/>
      </g>
      <g id="Graphic_66">
        <rect x="299.8915" y="246.1524" width="6.2" height="6.2" fill="#55e0e0"/>
      </g>
      <g id="Group_67">
        <g id="Graphic_74">
          <rect x="315.5577" y="241.1343" width="43.4" height="19.9" fill="#c7efed"/>
        </g>
        <g id="Graphic_73">
          <rect x="318.0054" y="243.6866" width="17.5" height="14.8" fill="#4262d3"/>
        </g>
        <g id="Graphic_72">
          <rect x="315.5464" y="263.3229" width="43.4" height="19.9" fill="#c7efed"/>
        </g>
        <g id="Graphic_71">
          <rect x="318.6596" y="268.5097" width="11.2" height="9.5" fill="#4262d3"/>
        </g>
        <g id="Graphic_70">
          <rect x="335.5" y="266" width="23.5" height="14.8" fill="#d9cfff"/>
        </g>
        <g id="Group_68">
          <g id="Graphic_69">
            <path d="M 355.3 218.2 C 357.3 218.2 359 219.8 359 221.9 L 359 325.9 C 359 327.9 357.4 329.6 355.3 329.6 L 319.3 329.6 C 317.3 329.6 315.6 328 315.6 325.9 L 315.6 221.9 C 315.6 219.9 317.2 218.2 319.3 218.2 Z M 355.3 217.2 L 319.3 217.2 C 316.7 217.2 314.6 219.3 314.6 221.9 L 314.6 325.9 C 314.6 328.5 316.7 330.6 319.3 330.6 L 355.3 330.6 C 357.9 330.6 360 328.5 360 325.9 L 360 221.9 C 360 219.3 357.9 217.2 355.3 217.2 Z" fill="#6d11a3"/>
          </g>
        </g>
      </g>
      <g id="Line_75">
        <line x1="279.2" y1="238.9" x2="310.5" y2="238.9" stroke="#6d11a3" stroke-linecap="butt" stroke-linejoin="round" stroke-width="1"/>
      </g>
      <g id="Line_76">
        <line x1="310.5" y1="333.8" x2="310.5" y2="212.7" stroke="#6d11a3" stroke-linecap="butt" stroke-linejoin="round" stroke-width="1"/>
      </g>
      <g id="Line_77">
        <line x1="364.1" y1="333.8" x2="364.1" y2="212.7" stroke="#6d11a3" stroke-linecap="butt" stroke-linejoin="round" stroke-width="1"/>
      </g>
      <g id="Line_78">
        <line x1="279.2" y1="259.5" x2="310.5" y2="259.5" stroke="#6d11a3" stroke-linecap="butt" stroke-linejoin="round" stroke-width="1"/>
      </g>
      <g id="Line_79">
        <line x1="279.2" y1="294.7" x2="310.5" y2="294.7" stroke="#6d11a3" stroke-linecap="butt" stroke-linejoin="round" stroke-width="1"/>
      </g>
      <g id="Line_80">
        <line x1="364.1" y1="238.9" x2="395.5" y2="238.9" stroke="#6d11a3" stroke-linecap="butt" stroke-linejoin="round" stroke-width="1"/>
      </g>
      <g id="Line_81">
        <line x1="364.1" y1="259.5" x2="395.5" y2="259.5" stroke="#6d11a3" stroke-linecap="butt" stroke-linejoin="round" stroke-width="1"/>
      </g>
      <g id="Line_82">
        <line x1="364.1" y1="294.7" x2="395.5" y2="294.7" stroke="#6d11a3" stroke-linecap="butt" stroke-linejoin="round" stroke-width="1"/>
      </g>
      <g id="Graphic_83">
        <rect x="287.0499" y="324.4939" width="10.1" height="6.1" fill="#55e0e0"/>
      </g>
      <g id="Graphic_84">
        <rect x="367.1059" y="263.7046" width="6.2" height="6.2" fill="#55e0e0"/>
      </g>
      <g id="Graphic_85">
        <rect x="367.1305" y="306.4587" width="4.2" height="13.8" fill="#55e0e0"/>
      </g>
      <g id="Graphic_86">
        <path d="M 421.9 69.4 L 435.2 69.4 C 437.6 69.4 439.6 71.4 439.6 73.8 L 439.6 135.5 C 439.6 138.3 437.3 140.6 434.5 140.6 L 386.4 140.6 C 384.3 140.6 382.6 142.3 382.6 144.5 L 384.2 213.8" stroke="#55e0e0" stroke-linecap="butt" stroke-linejoin="round" stroke-width="3"/>
      </g>
      <g id="Graphic_87">
        <path d="M 346.6 69.4 L 323.6 69.4 C 320.8 69.4 318.5 71.7 318.5 74.5 L 318.5 134.8 C 318.5 137.6 320.8 139.9 323.6 139.9 L 360.8 139.9 C 363.6 139.9 365.9 142.2 365.9 145 L 365.9 188.8 C 365.9 191.6 363.6 193.9 360.8 193.9 L 254.9 193.9" stroke="#55e0e0" stroke-linecap="butt" stroke-linejoin="round" stroke-width="3"/>
      </g>
      <g id="Group_88">
        <g id="Graphic_92">
          <path d="M 426.5 237.5 C 425.7 241.1 422.8 243.7 417.3 243.7 C 410.9 243.7 407.7 239.6 407.7 234.7 C 407.7 230 410.9 225.7 417.5 225.7 C 423.3 225.7 426.1 228.7 426.5 231.9 L 421 231.9 C 420.8 230.9 420 229.5 417.6 229.5 C 415 229.5 413.7 231.5 413.7 234.6 C 413.7 237.3 414.7 239.9 417.6 239.9 C 419.7 239.9 420.5 239 421 237.5 Z" fill="#55e0e0"/>
        </g>
        <g id="Graphic_91">
          <path d="M 423.4 261.5 L 414.2 261.5 L 414.2 264.4 L 424.5 264.4 L 423.9 268.4 L 408.8 268.4 L 408.8 251.2 L 424 251.2 L 424 255.2 L 414.3 255.2 L 414.3 257.6 L 423.5 257.6 L 423.5 261.5 Z" fill="#55e0e0"/>
        </g>
        <g id="Graphic_90">
          <path d="M 424.9 287.5 C 424.9 284.8 424.9 281.5 425.1 279.4 L 425 279.4 C 424.2 282.7 423.1 287.2 421.4 293.3 L 416.8 293.3 C 415.4 287.6 414.3 282.9 413.5 279.4 C 413.6 281.4 413.8 284.7 413.8 287.7 L 413.8 293.3 L 408.8 293.3 L 408.8 276.1 L 416.8 276.1 C 417.9 280 419 284.2 419.5 287.1 C 420.2 284.1 421.3 280 422.4 276.1 L 430.4 276.1 L 430.4 293.3 L 424.9 293.3 L 424.9 287.5 Z" fill="#55e0e0"/>
        </g>
        <g id="Graphic_89">
          <path d="M 412.7 313.1 C 413.1 314.2 413.9 315.1 416.2 315.1 C 418.2 315.1 418.8 314.5 418.8 313.6 C 418.8 312.7 418.2 312.2 415 311.6 C 408.6 310.5 407.7 308.3 407.7 306.1 C 407.7 302.7 410.9 300.7 415.6 300.7 C 421.3 300.7 423.6 303.3 423.8 305.9 L 418.4 305.9 C 418.2 305.1 417.7 304.3 415.6 304.3 C 414.1 304.3 413.4 304.8 413.4 305.6 C 413.4 306.4 414.1 306.8 416.8 307.3 C 423.3 308.5 424.6 310.5 424.6 313.1 C 424.6 316.4 421.8 318.8 416 318.8 C 410.2 318.8 407.7 316.4 407.1 313.2 L 412.7 313.2 Z" fill="#55e0e0"/>
        </g>
      </g>
      <g id="Group_93">
        <g id="Graphic_97">
          <path d="M 60.2 25.2 L 69.7 25.2 C 73.8 25.2 76.6 27.2 76.6 30.7 C 76.6 34.3 73.9 36.4 69.7 36.4 L 65.6 36.4 L 65.6 42.1 L 60.1 42.1 L 60.1 25.2 Z M 65.7 32.6 L 68.9 32.6 C 70.4 32.6 71.2 32 71.2 30.7 C 71.2 29.6 70.5 28.8 68.9 28.8 L 65.7 28.8 Z" fill="#55e0e0"/>
        </g>
        <g id="Graphic_96">
          <path d="M 95.9 35.3 L 86.9 35.3 L 86.9 38.1 L 97 38.1 L 96.4 42 L 81.5 42 L 81.5 25.2 L 96.4 25.2 L 96.4 29.1 L 86.9 29.1 L 86.9 31.5 L 95.9 31.5 Z" fill="#55e0e0"/>
        </g>
        <g id="Graphic_95">
          <path d="M 117.8 36.4 C 117.8 33.7 117.8 30.5 118 28.5 C 117.2 31.8 116.1 36.1 114.4 42.1 L 109.9 42.1 C 108.6 36.5 107.5 31.9 106.7 28.5 C 106.8 30.5 107 33.7 107 36.6 L 107 42.1 L 102.1 42.1 L 102.1 25.2 L 110 25.2 C 111.1 29 112.2 33.2 112.6 36 C 113.2 33 114.3 29.1 115.5 25.2 L 123.3 25.2 L 123.3 42.1 L 117.9 42.1 L 117.9 36.4 Z" fill="#55e0e0"/>
        </g>
        <g id="Graphic_94">
          <path d="M 133.4 37 C 133.8 38.1 134.6 39 136.8 39 C 138.8 39 139.4 38.4 139.4 37.6 C 139.4 36.7 138.9 36.2 135.7 35.6 C 129.5 34.5 128.6 32.4 128.6 30.2 C 128.6 26.9 131.7 24.9 136.4 24.9 C 142 24.9 144.3 27.5 144.5 30 L 139.2 30 C 139 29.2 138.5 28.4 136.4 28.4 C 134.9 28.4 134.2 28.9 134.2 29.7 C 134.2 30.5 134.9 30.8 137.5 31.3 C 143.9 32.4 145.1 34.4 145.1 37 C 145.1 40.2 142.4 42.6 136.7 42.6 C 131 42.6 128.5 40.2 128 37.2 L 133.4 37.2 Z" fill="#55e0e0"/>
        </g>
      </g>
      <g id="Graphic_98">
        <rect x="148.5" y="282.9" width="20.5" height="33.5" fill="#a1e5e3"/>
      </g>
      <g id="Graphic_99">
        <rect x="180.7" y="282.9" width="20.5" height="33.5" fill="#a1e5e3"/>
      </g>
    </g>
  </g>
</svg>
